# xmcd
#
# Track frame offsets:
#	150
#	18646
#	31268
#	46362
#	61304
#	75595
#	88048
#	102178
#	114055
#	125079
#	137404
#	148445
#	160831
#	174734
#	188508
#	201450
#	219515
#	243532
#
# Disc length: 3255 seconds
#
# Revision: 1
# Processed by: cddbd v1.5.2PL0 Copyright (c) Steve Scherf et al.
# Submitted via: audiograbber 1.83.01
#
DISCID=fd0cb512
DTITLE=Various Artist - TT-239-03
DYEAR=2001
DGENRE=Karaoke
TTITLE0=Ray Price - For The Good Times
TTITLE1=Glen Campbell - Galveston
TTITLE2=George Jones and Tammy Wynette - Golden Ring
TTITLE3=Waylon Jennings - Good Hearted Woman
TTITLE4=Tom Jones - Green, Green Grass of Home
TTITLE5=Donna Fargo - Happiest Girl In The Whole USA
TTITLE6=George Jones - He Stopped Loving Her Today
TTITLE7=Kendalls - Heaven's Just A Sin Away
TTITLE8=Jim Reeves - He'll Have To Go
TTITLE9=Conway Twitty - Hello Darlin'
TTITLE10=Faron Young - Hello Walls
TTITLE11=Sammi Smith - Help Me Make It Through The Night
TTITLE12=Dolly Parton - Here You Come Again
TTITLE13=Hank Williams - Hey, Good Lookin'
TTITLE14=Hank Williams - Honky Tonkin'
TTITLE15=Don Williams - I Believe In You
TTITLE16=Billy Swan - I Can Help
TTITLE17=N/A Data Track - Data Track
EXTD=
EXTT0=
EXTT1=
EXTT2=
EXTT3=
EXTT4=
EXTT5=
EXTT6=
EXTT7=
EXTT8=
EXTT9=
EXTT10=
EXTT11=
EXTT12=
EXTT13=
EXTT14=
EXTT15=
EXTT16=
EXTT17=
PLAYORDER=
